<svg width="64" height="64" viewBox="0 0 64 64" fill="none" xmlns="http://www.w3.org/2000/svg">
<rect width="64" height="64" fill="url(#paint0_linear_3_14)"/>
<path d="M34.1982 21.0664C30.9156 21.0664 28.4 22.0858 26.6513 24.1245C24.9333 26.1328 24.0743 28.9322 24.0743 32.5228C24.0743 34.2268 24.2737 35.7939 24.6726 37.2241C25.1021 38.6238 25.7156 39.8257 26.5133 40.8299C27.3416 41.834 28.354 42.6252 29.5504 43.2033C30.7776 43.751 32.2041 44.0249 33.8301 44.0249C34.8425 44.0249 35.7168 43.9945 36.4531 43.9336C37.1894 43.8423 37.7723 43.7358 38.2018 43.6141V32.249H44V47.4481C43.2024 47.7524 41.8525 48.0871 39.9504 48.4523C38.0484 48.8174 35.8549 49 33.3699 49C31.069 49 28.9676 48.6349 27.0655 47.9046C25.1634 47.1743 23.5375 46.1093 22.1876 44.7095C20.8684 43.3098 19.8407 41.5906 19.1044 39.5519C18.3681 37.5131 18 35.1701 18 32.5228C18 29.8755 18.3988 27.5325 19.1965 25.4938C20.0248 23.455 21.1445 21.7358 22.5558 20.3361C23.967 18.9059 25.6236 17.8257 27.5257 17.0954C29.4277 16.3651 31.4525 16 33.6 16C35.0726 16 36.3764 16.1065 37.5115 16.3195C38.6773 16.5021 39.6743 16.7151 40.5027 16.9585C41.331 17.2019 42.0059 17.4606 42.5274 17.7344C43.0796 18.0083 43.4631 18.2061 43.6779 18.3278L41.9292 23.029C41.0089 22.4813 39.8584 22.0249 38.4779 21.6598C37.128 21.2642 35.7015 21.0664 34.1982 21.0664Z" fill="white"/>
<defs>
<linearGradient id="paint0_linear_3_14" x1="15" y1="9.00589e-07" x2="42" y2="64" gradientUnits="userSpaceOnUse">
<stop stop-color="#1F1F1F"/>
<stop offset="1" stop-color="#343434"/>
</linearGradient>
</defs>
</svg>
